<svg width="231" height="55" viewBox="0 0 231 55" fill="none" xmlns="http://www.w3.org/2000/svg">
<path d="M6.33028 9.152V26H2.22628V9.152H6.33028ZM16.7684 22.52V26H14.6804C13.1924 26 12.0324 25.64 11.2004 24.92C10.3684 24.184 9.95241 22.992 9.95241 21.344V16.016H8.32041V12.608H9.95241V9.344H14.0564V12.608H16.7444V16.016H14.0564V21.392C14.0564 21.792 14.1524 22.08 14.3444 22.256C14.5364 22.432 14.8564 22.52 15.3044 22.52H16.7684ZM18.2384 19.28C18.2384 17.904 18.4944 16.696 19.0064 15.656C19.5344 14.616 20.2464 13.816 21.1424 13.256C22.0384 12.696 23.0384 12.416 24.1424 12.416C25.0864 12.416 25.9104 12.608 26.6144 12.992C27.3344 13.376 27.8864 13.88 28.2704 14.504V12.608H32.3744V26H28.2704V24.104C27.8704 24.728 27.3104 25.232 26.5904 25.616C25.8864 26 25.0624 26.192 24.1184 26.192C23.0304 26.192 22.0384 25.912 21.1424 25.352C20.2464 24.776 19.5344 23.968 19.0064 22.928C18.4944 21.872 18.2384 20.656 18.2384 19.28ZM28.2704 19.304C28.2704 18.28 27.9824 17.472 27.4064 16.88C26.8464 16.288 26.1584 15.992 25.3424 15.992C24.5264 15.992 23.8304 16.288 23.2544 16.88C22.6944 17.456 22.4144 18.256 22.4144 19.28C22.4144 20.304 22.6944 21.12 23.2544 21.728C23.8304 22.32 24.5264 22.616 25.3424 22.616C26.1584 22.616 26.8464 22.32 27.4064 21.728C27.9824 21.136 28.2704 20.328 28.2704 19.304ZM39.4475 8.24V26H35.3435V8.24H39.4475ZM44.4856 11.216C43.7656 11.216 43.1736 11.008 42.7096 10.592C42.2616 10.16 42.0376 9.632 42.0376 9.008C42.0376 8.368 42.2616 7.84 42.7096 7.424C43.1736 6.992 43.7656 6.776 44.4856 6.776C45.1896 6.776 45.7656 6.992 46.2136 7.424C46.6776 7.84 46.9096 8.368 46.9096 9.008C46.9096 9.632 46.6776 10.16 46.2136 10.592C45.7656 11.008 45.1896 11.216 44.4856 11.216ZM46.5256 12.608V26H42.4216V12.608H46.5256ZM48.6837 19.28C48.6837 17.904 48.9397 16.696 49.4517 15.656C49.9797 14.616 50.6917 13.816 51.5877 13.256C52.4837 12.696 53.4837 12.416 54.5877 12.416C55.5317 12.416 56.3557 12.608 57.0597 12.992C57.7797 13.376 58.3317 13.88 58.7157 14.504V12.608H62.8197V26H58.7157V24.104C58.3157 24.728 57.7557 25.232 57.0357 25.616C56.3317 26 55.5077 26.192 54.5637 26.192C53.4757 26.192 52.4837 25.912 51.5877 25.352C50.6917 24.776 49.9797 23.968 49.4517 22.928C48.9397 21.872 48.6837 20.656 48.6837 19.28ZM58.7157 19.304C58.7157 18.28 58.4277 17.472 57.8517 16.88C57.2917 16.288 56.6037 15.992 55.7877 15.992C54.9717 15.992 54.2757 16.288 53.6997 16.88C53.1397 17.456 52.8597 18.256 52.8597 19.28C52.8597 20.304 53.1397 21.12 53.6997 21.728C54.2757 22.32 54.9717 22.616 55.7877 22.616C56.6037 22.616 57.2917 22.32 57.8517 21.728C58.4277 21.136 58.7157 20.328 58.7157 19.304ZM89.9547 9.152V26H85.8507V15.896L82.0827 26H78.7707L74.9787 15.872V26H70.8747V9.152H75.7227L80.4507 20.816L85.1307 9.152H89.9547ZM105.53 19.088C105.53 19.472 105.506 19.872 105.458 20.288H96.17C96.234 21.12 96.498 21.76 96.962 22.208C97.442 22.64 98.026 22.856 98.714 22.856C99.738 22.856 100.45 22.424 100.85 21.56H105.218C104.994 22.44 104.586 23.232 103.994 23.936C103.418 24.64 102.69 25.192 101.81 25.592C100.93 25.992 99.946 26.192 98.858 26.192C97.546 26.192 96.378 25.912 95.354 25.352C94.33 24.792 93.53 23.992 92.954 22.952C92.378 21.912 92.09 20.696 92.09 19.304C92.09 17.912 92.37 16.696 92.93 15.656C93.506 14.616 94.306 13.816 95.33 13.256C96.354 12.696 97.53 12.416 98.858 12.416C100.154 12.416 101.306 12.688 102.314 13.232C103.322 13.776 104.106 14.552 104.666 15.56C105.242 16.568 105.53 17.744 105.53 19.088ZM101.33 18.008C101.33 17.304 101.09 16.744 100.61 16.328C100.13 15.912 99.53 15.704 98.81 15.704C98.122 15.704 97.538 15.904 97.058 16.304C96.594 16.704 96.306 17.272 96.194 18.008H101.33ZM111.799 14.84C112.279 14.104 112.879 13.528 113.599 13.112C114.319 12.68 115.119 12.464 115.999 12.464V16.808H114.871C113.847 16.808 113.079 17.032 112.567 17.48C112.055 17.912 111.799 18.68 111.799 19.784V26H107.695V12.608H111.799V14.84ZM117.145 19.28C117.145 17.904 117.401 16.696 117.913 15.656C118.441 14.616 119.153 13.816 120.049 13.256C120.945 12.696 121.945 12.416 123.049 12.416C123.993 12.416 124.817 12.608 125.521 12.992C126.241 13.376 126.793 13.88 127.177 14.504V12.608H131.281V26H127.177V24.104C126.777 24.728 126.217 25.232 125.497 25.616C124.793 26 123.969 26.192 123.025 26.192C121.937 26.192 120.945 25.912 120.049 25.352C119.153 24.776 118.441 23.968 117.913 22.928C117.401 21.872 117.145 20.656 117.145 19.28ZM127.177 19.304C127.177 18.28 126.889 17.472 126.313 16.88C125.753 16.288 125.065 15.992 124.249 15.992C123.433 15.992 122.737 16.288 122.161 16.88C121.601 17.456 121.321 18.256 121.321 19.28C121.321 20.304 121.601 21.12 122.161 21.728C122.737 22.32 123.433 22.616 124.249 22.616C125.065 22.616 125.753 22.32 126.313 21.728C126.889 21.136 127.177 20.328 127.177 19.304ZM140.274 22.16L143.178 12.608H147.546L142.794 26H137.73L132.978 12.608H137.37L140.274 22.16ZM151.337 11.216C150.617 11.216 150.025 11.008 149.561 10.592C149.113 10.16 148.889 9.632 148.889 9.008C148.889 8.368 149.113 7.84 149.561 7.424C150.025 6.992 150.617 6.776 151.337 6.776C152.041 6.776 152.617 6.992 153.065 7.424C153.529 7.84 153.761 8.368 153.761 9.008C153.761 9.632 153.529 10.16 153.065 10.592C152.617 11.008 152.041 11.216 151.337 11.216ZM153.377 12.608V26H149.273V12.608H153.377ZM161.439 12.416C162.383 12.416 163.207 12.608 163.911 12.992C164.631 13.376 165.183 13.88 165.567 14.504V12.608H169.671V25.976C169.671 27.208 169.423 28.32 168.927 29.312C168.447 30.32 167.703 31.12 166.695 31.712C165.703 32.304 164.463 32.6 162.975 32.6C160.991 32.6 159.383 32.128 158.151 31.184C156.919 30.256 156.215 28.992 156.039 27.392H160.095C160.223 27.904 160.527 28.304 161.007 28.592C161.487 28.896 162.079 29.048 162.783 29.048C163.631 29.048 164.303 28.8 164.799 28.304C165.311 27.824 165.567 27.048 165.567 25.976V24.08C165.167 24.704 164.615 25.216 163.911 25.616C163.207 26 162.383 26.192 161.439 26.192C160.335 26.192 159.335 25.912 158.439 25.352C157.543 24.776 156.831 23.968 156.303 22.928C155.791 21.872 155.535 20.656 155.535 19.28C155.535 17.904 155.791 16.696 156.303 15.656C156.831 14.616 157.543 13.816 158.439 13.256C159.335 12.696 160.335 12.416 161.439 12.416ZM165.567 19.304C165.567 18.28 165.279 17.472 164.703 16.88C164.143 16.288 163.455 15.992 162.639 15.992C161.823 15.992 161.127 16.288 160.551 16.88C159.991 17.456 159.711 18.256 159.711 19.28C159.711 20.304 159.991 21.12 160.551 21.728C161.127 22.32 161.823 22.616 162.639 22.616C163.455 22.616 164.143 22.32 164.703 21.728C165.279 21.136 165.567 20.328 165.567 19.304ZM176.744 8.24V26H172.64V8.24H176.744ZM181.782 11.216C181.062 11.216 180.47 11.008 180.006 10.592C179.558 10.16 179.334 9.632 179.334 9.008C179.334 8.368 179.558 7.84 180.006 7.424C180.47 6.992 181.062 6.776 181.782 6.776C182.486 6.776 183.062 6.992 183.51 7.424C183.974 7.84 184.206 8.368 184.206 9.008C184.206 9.632 183.974 10.16 183.51 10.592C183.062 11.008 182.486 11.216 181.782 11.216ZM183.822 12.608V26H179.718V12.608H183.822ZM192.893 26.192C191.581 26.192 190.397 25.912 189.341 25.352C188.301 24.792 187.477 23.992 186.869 22.952C186.277 21.912 185.981 20.696 185.981 19.304C185.981 17.928 186.285 16.72 186.893 15.68C187.501 14.624 188.333 13.816 189.389 13.256C190.445 12.696 191.629 12.416 192.941 12.416C194.253 12.416 195.437 12.696 196.493 13.256C197.549 13.816 198.381 14.624 198.989 15.68C199.597 16.72 199.901 17.928 199.901 19.304C199.901 20.68 199.589 21.896 198.965 22.952C198.357 23.992 197.517 24.792 196.445 25.352C195.389 25.912 194.205 26.192 192.893 26.192ZM192.893 22.64C193.677 22.64 194.341 22.352 194.885 21.776C195.445 21.2 195.725 20.376 195.725 19.304C195.725 18.232 195.453 17.408 194.909 16.832C194.381 16.256 193.725 15.968 192.941 15.968C192.141 15.968 191.477 16.256 190.949 16.832C190.421 17.392 190.157 18.216 190.157 19.304C190.157 20.376 190.413 21.2 190.925 21.776C191.453 22.352 192.109 22.64 192.893 22.64ZM207.526 26.192C206.358 26.192 205.318 25.992 204.406 25.592C203.494 25.192 202.774 24.648 202.246 23.96C201.718 23.256 201.422 22.472 201.358 21.608H205.414C205.462 22.072 205.678 22.448 206.062 22.736C206.446 23.024 206.918 23.168 207.478 23.168C207.99 23.168 208.382 23.072 208.654 22.88C208.942 22.672 209.086 22.408 209.086 22.088C209.086 21.704 208.886 21.424 208.486 21.248C208.086 21.056 207.438 20.848 206.542 20.624C205.582 20.4 204.782 20.168 204.142 19.928C203.502 19.672 202.95 19.28 202.486 18.752C202.022 18.208 201.79 17.48 201.79 16.568C201.79 15.8 201.998 15.104 202.414 14.48C202.846 13.84 203.47 13.336 204.286 12.968C205.118 12.6 206.102 12.416 207.238 12.416C208.918 12.416 210.238 12.832 211.198 13.664C212.174 14.496 212.734 15.6 212.878 16.976H209.086C209.022 16.512 208.814 16.144 208.462 15.872C208.126 15.6 207.678 15.464 207.118 15.464C206.638 15.464 206.27 15.56 206.014 15.752C205.758 15.928 205.63 16.176 205.63 16.496C205.63 16.88 205.83 17.168 206.23 17.36C206.646 17.552 207.286 17.744 208.15 17.936C209.142 18.192 209.95 18.448 210.574 18.704C211.198 18.944 211.742 19.344 212.206 19.904C212.686 20.448 212.934 21.184 212.95 22.112C212.95 22.896 212.726 23.6 212.278 24.224C211.846 24.832 211.214 25.312 210.382 25.664C209.566 26.016 208.614 26.192 207.526 26.192ZM214.645 19.28C214.645 17.904 214.901 16.696 215.413 15.656C215.941 14.616 216.653 13.816 217.549 13.256C218.445 12.696 219.445 12.416 220.549 12.416C221.493 12.416 222.317 12.608 223.021 12.992C223.741 13.376 224.293 13.88 224.677 14.504V12.608H228.781V26H224.677V24.104C224.277 24.728 223.717 25.232 222.997 25.616C222.293 26 221.469 26.192 220.525 26.192C219.437 26.192 218.445 25.912 217.549 25.352C216.653 24.776 215.941 23.968 215.413 22.928C214.901 21.872 214.645 20.656 214.645 19.28ZM224.677 19.304C224.677 18.28 224.389 17.472 223.813 16.88C223.253 16.288 222.565 15.992 221.749 15.992C220.933 15.992 220.237 16.288 219.661 16.88C219.101 17.456 218.821 18.256 218.821 19.28C218.821 20.304 219.101 21.12 219.661 21.728C220.237 22.32 220.933 22.616 221.749 22.616C222.565 22.616 223.253 22.32 223.813 21.728C224.389 21.136 224.677 20.328 224.677 19.304Z" fill="#EF4444"/>
<path d="M84.9374 34.534C84.6734 34.534 84.4514 34.45 84.2714 34.282C84.1034 34.102 84.0194 33.88 84.0194 33.616C84.0194 33.256 84.1514 32.95 84.4154 32.698C84.6794 32.434 84.9854 32.302 85.3334 32.302C85.6094 32.302 85.8314 32.386 85.9994 32.554C86.1674 32.722 86.2514 32.944 86.2514 33.22C86.2514 33.58 86.1194 33.892 85.8554 34.156C85.5914 34.408 85.2854 34.534 84.9374 34.534ZM85.4594 36.136L83.7134 46H82.0754L83.8214 36.136H85.4594ZM93.0931 35.956C94.1131 35.956 94.9291 36.232 95.5411 36.784C96.1531 37.324 96.4591 38.116 96.4591 39.16C96.4591 39.544 96.4291 39.886 96.3691 40.186L95.3431 46H93.7231L94.7131 40.42C94.7611 40.168 94.7851 39.904 94.7851 39.628C94.7851 38.896 94.5811 38.338 94.1731 37.954C93.7771 37.57 93.2191 37.378 92.4991 37.378C91.6351 37.378 90.8971 37.648 90.2851 38.188C89.6851 38.728 89.2951 39.514 89.1151 40.546V40.51L88.1431 46H86.5051L88.2511 36.136H89.8891L89.6371 37.558C90.0451 37.042 90.5551 36.646 91.1671 36.37C91.7791 36.094 92.4211 35.956 93.0931 35.956ZM113.316 33.454L113.082 34.732H109.662L107.682 46H106.044L108.024 34.732H104.604L104.838 33.454H113.316ZM117.456 46.162C116.628 46.162 115.896 45.994 115.26 45.658C114.636 45.31 114.15 44.83 113.802 44.218C113.454 43.594 113.28 42.874 113.28 42.058C113.28 40.942 113.538 39.922 114.054 38.998C114.57 38.062 115.278 37.324 116.178 36.784C117.09 36.244 118.104 35.974 119.22 35.974C120.048 35.974 120.78 36.148 121.416 36.496C122.064 36.832 122.562 37.312 122.91 37.936C123.27 38.548 123.45 39.268 123.45 40.096C123.45 41.212 123.186 42.232 122.658 43.156C122.13 44.08 121.41 44.812 120.498 45.352C119.586 45.892 118.572 46.162 117.456 46.162ZM117.654 44.776C118.434 44.776 119.136 44.566 119.76 44.146C120.384 43.714 120.87 43.15 121.218 42.454C121.578 41.746 121.758 40.99 121.758 40.186C121.758 39.274 121.494 38.578 120.966 38.098C120.438 37.606 119.778 37.36 118.986 37.36C118.206 37.36 117.51 37.576 116.898 38.008C116.286 38.428 115.812 38.992 115.476 39.7C115.14 40.408 114.972 41.17 114.972 41.986C114.972 42.874 115.224 43.564 115.728 44.056C116.232 44.536 116.874 44.776 117.654 44.776ZM135.126 36.136L133.38 46H131.742L131.994 44.56C131.598 45.064 131.094 45.454 130.482 45.73C129.87 46.006 129.234 46.144 128.574 46.144C127.542 46.144 126.714 45.868 126.09 45.316C125.478 44.752 125.172 43.948 125.172 42.904C125.172 42.64 125.202 42.31 125.262 41.914L126.288 36.136H127.908L126.936 41.698C126.888 41.95 126.864 42.214 126.864 42.49C126.864 43.222 127.062 43.78 127.458 44.164C127.866 44.536 128.43 44.722 129.15 44.722C130.014 44.722 130.746 44.452 131.346 43.912C131.958 43.372 132.348 42.586 132.516 41.554V41.608L133.488 36.136H135.126ZM139.206 38.008C139.602 37.36 140.1 36.856 140.7 36.496C141.3 36.136 141.984 35.956 142.752 35.956L142.446 37.648H142.014C141.162 37.648 140.448 37.876 139.872 38.332C139.308 38.788 138.93 39.556 138.738 40.636L137.784 46H136.146L137.892 36.136H139.53L139.206 38.008Z" fill="#10B981"/>
</svg>
